<svg xmlns="http://www.w3.org/2000/svg" xmlns:xlink="http://www.w3.org/1999/xlink" width="75" zoomAndPan="magnify" viewBox="0 0 56.25 56.249997" height="75" preserveAspectRatio="xMidYMid meet" version="1.0"><defs><clipPath id="b5a9f95152"><path d="M 7.734375 1.917969 L 52.882812 1.917969 L 52.882812 54.46875 L 7.734375 54.46875 Z M 7.734375 1.917969 " clip-rule="nonzero"/></clipPath></defs><g clip-path="url(#b5a9f95152)"><path fill="#ffffff" d="M 37.214844 43.484375 L 26.273438 54.449219 L 13.175781 54.449219 L 7.734375 48.972656 L 17.832031 38.847656 L 22.289062 43.296875 L 17.511719 48.0625 L 23.660156 48.0625 L 28.296875 43.441406 L 12.671875 27.832031 L 24.90625 15.601562 L 37.429688 28.125 L 32.972656 32.582031 L 24.902344 24.515625 L 21.585938 27.832031 Z M 21.960938 12.671875 L 17.511719 8.234375 L 23.660156 8.234375 L 43.601562 28.164062 L 36.070312 35.6875 L 40.53125 40.144531 L 52.527344 28.160156 L 26.273438 1.925781 L 13.175781 1.925781 L 7.734375 7.355469 L 17.507812 17.128906 Z M 21.960938 12.671875 " fill-opacity="1" fill-rule="nonzero"/></g></svg>